<mxfile host="app.diagrams.net" modified="2023-09-25T04:01:18.387Z" agent="Mozilla/5.0 (Windows NT 10.0; Win64; x64) AppleWebKit/537.36 (KHTML, like Gecko) Chrome/116.0.0.0 Safari/537.36" version="21.7.2" etag="PQuzo8ididPrEg2zY3m-" type="github">
  <diagram name="第 1 页" id="tU8rETGdnw0r7stQDwds">
    <mxGraphModel>
      <root>
        <mxCell id="0" />
        <mxCell id="1" parent="0" />
      </root>
    </mxGraphModel>
  </diagram>
</mxfile>
